<svg id="Layer_1" data-name="Layer 1" xmlns="http://www.w3.org/2000/svg" viewBox="0 0 541 44.61"><defs><style>.cls-1{fill:#ff002b;}</style></defs><title>Untitled-1</title><path class="cls-1" d="M633,286c0-4,4.26-8.35,18.75-8.35,14.13,0,18.75,4.35,18.75,8.35H633Z" transform="translate(-129.5 -277.65)"/><path class="cls-1" d="M670.5,304c0,4-4.26,8.35-18.75,8.35C637.62,312.35,633,308,633,304h37.5Z" transform="translate(-129.5 -277.65)"/><rect class="cls-1" x="503.5" y="13.9" width="37.5" height="6.77"/><path class="cls-1" d="M129.92,299.51h0c-0.61,2.48-.67,4.26.52,6.54a6.79,6.79,0,0,1,.62,3.7c0,0.73,0,1.52,0,2.27a5.14,5.14,0,0,0,.77,2.34,6.28,6.28,0,0,1,.38,2.32,1.9,1.9,0,0,0,1.34,1.73c1.29,0.6,3.49.68,4.24-.84,2-4.06.37-6.3,1.34-10.54,0.46-2,1.25-3.5,1.12-5.65-0.1-1.72-1.15-4.63.41-6s2.28,0.82,2.63,2c0.6,2.07-.63,4.06-0.72,6.2a11.39,11.39,0,0,0,1.1,5.54,11.06,11.06,0,0,1,.69,1.82,3.46,3.46,0,0,0,.44,1.58,1.87,1.87,0,0,0,.87.52c1.6,0.42,2-1.11,2.39-2.28a39.94,39.94,0,0,1,1.86-4.61,5.26,5.26,0,0,0,.73-2.37,13.51,13.51,0,0,1,0-3.1c0.19-.81.49-1.56,0.62-2.38s0.17-1.93,1-2.54c1.28-.93,2.5.06,2.59,1.51,0.3,4.47-2,8.94-.63,13.4a7.64,7.64,0,0,1,.51,1.91c0.08,1.79-1.92,4.72.49,5.89a3.59,3.59,0,0,0,2.32.38c1.27-.55,1.52-2.72,3-2.92a6.35,6.35,0,0,0,1.47-.07,1.42,1.42,0,0,0,.78-1c0.6-2.44,0-5-.16-7.44-0.34-4.58.61-8.88,0.94-13.42a47.87,47.87,0,0,0,0-6.73c-0.15-2.18-.16-5.19-1.25-7.13-1.69-3-7.31-3.14-8.81.14-0.36.79-.33,1.7-0.65,2.5a3.86,3.86,0,0,1-1.52,1.65c-2.3,1.82-1.35,3.59-1.85,5.93a1.68,1.68,0,0,1-1.3,1.4c-2.31.24-2.17-3.81-2.35-5.21a22.54,22.54,0,0,0-1.64-6.5c-1-2.09-2.44-2.52-4.52-2.41a9.68,9.68,0,0,0-5.78,2.09c-1.74,1.67-.9,4.49-1.68,6.58-0.39,1-1.22,1.88-1.56,2.93a6.68,6.68,0,0,0-.08,2.4A27.16,27.16,0,0,1,129.92,299.51Z" transform="translate(-129.5 -277.65)"/><path class="cls-1" d="M188.38,310.26a14.28,14.28,0,0,1-1.5-3.46,31.63,31.63,0,0,1-.21-4,52.56,52.56,0,0,0-.9-8.41c-0.55-2.6-1.84-5.11-2.06-7.75a15.18,15.18,0,0,0-.22-3.55c-0.4-1.19-1.38-1.64-2.26-2.42s-1.2-1.79-2.12-2.39a3.55,3.55,0,0,0-3-.4,12.07,12.07,0,0,0-2.23,1.57c-1,.65-1.81,1-2.31,2.18-0.35.85-.48,1.79-0.88,2.62-0.7,1.45-1.73,2.59-1.94,4.23s0.65,3.22,0,4.67a13.4,13.4,0,0,1-.95,1.37c-1.17,1.84-.46,4.22-0.67,6.37-0.17,1.73-1.23,3.14-1.54,4.79a16.28,16.28,0,0,0-.29,4.77c0.07,0.59.32,1.14,0.4,1.73,0.17,1.16-.27,2.42.27,3.46a2.09,2.09,0,0,0,3.62.09c0.52-.86.32-1.95,0.57-2.92a3.4,3.4,0,0,1,1.49-2c0.4-.25.85-0.42,1.24-0.7,1.18-.86,1.76-4.77,1.79-6.17,0-1.12-.57-2.41.44-3.22,2.55-2,2.53,2.69,2.68,4a12.15,12.15,0,0,0,.77,4.26,15.17,15.17,0,0,1,1.72,3.48c0.52,2.12.44,5.48,3.34,5.54,1.32,0,2.61-.88,3.88-0.11,0.65,0.39,1.72,1.73,2.45.71,0.55-.77-0.12-3.07-0.26-4A14.88,14.88,0,0,0,188.38,310.26ZM178,293.66a1.38,1.38,0,0,1-1.42,1.17c-0.79-.2-0.88-1.26-0.85-2a23.5,23.5,0,0,0,.31-2.64c-0.06-.93-0.59-1.75-0.25-2.68,0.5-1.34,2.61-2,3.22-.4,0.35,0.94-.08,2.31-0.31,3.22C178.41,291.43,178.27,292.58,178,293.66Z" transform="translate(-129.5 -277.65)"/><path class="cls-1" d="M204.55,278.33c1.93-.11,4.36-0.8,6,0.67,2.28,2.08.75,5.08,0,7.47-0.41,1.25-.33,2.83-1,3.95a1.69,1.69,0,0,1-2.76.39c-0.84-.95-0.37-3.64-1.73-4-0.79-.22-1.56.74-1.84,1.4-0.5,1.18-.2,2.63-0.22,3.87,0,2.18-.22,4.37-0.28,6.55-0.09,3.66.72,8-.38,11.49-0.48,1.55-1.35,3-1.55,4.6-0.27,2.21-.13,4.86-3,4.82-2,0-2.1-1.26-2.75-2.83a4.82,4.82,0,0,0-1.35-1.92,3.4,3.4,0,0,1-.9-2.81,25.23,25.23,0,0,1,.76-3.5,12.88,12.88,0,0,0-.17-3.77,12.67,12.67,0,0,1,.56-4.22c0.42-1.69,1.88-12.88-1.35-11.88-1.5.46-1.59,2.53-2.26,3.72a1.28,1.28,0,0,1-1.36.89c-1.15-.37-0.83-3.3-0.9-4.24-0.09-1.34-.68-2.77-0.23-4.08a4.85,4.85,0,0,0,.5-2.5,8.54,8.54,0,0,1-.15-2.42,2.06,2.06,0,0,1,.1-0.42,2.35,2.35,0,0,1,.41-0.63,4.36,4.36,0,0,1,.83-0.86,2.37,2.37,0,0,1,1.57-.4c1.64,0.14,2.55,1.89,4.21,2.11C198.34,280.16,201.46,278.51,204.55,278.33Z" transform="translate(-129.5 -277.65)"/><path class="cls-1" d="M232.15,312.44v0c-0.21-.79-0.54-1.55-0.71-2.35-0.24-1.14-.23-2.25-0.53-3.37a30.24,30.24,0,0,1-1.11-4.23c-0.13-1.11.16-2.22,0.11-3.32a14.34,14.34,0,0,0-.45-3.29,18.37,18.37,0,0,1-.85-3.33c-0.12-1.29.39-2.61,0.24-3.85a13.53,13.53,0,0,0-1.21-2.9c-0.58-1.58-.58-3.28-1.36-4.82a5.66,5.66,0,0,0-4-3.23,4.61,4.61,0,0,0-4.1,1.64c-0.92,1.11-1.2,2.54-2,3.73-0.64,1-1.51,1.72-2.16,2.71-1.37,2.08-.76,5-1.15,7.38-0.42,2.55-1.84,4.5-2.66,6.89a8.86,8.86,0,0,0-.34,3.23c0.07,3.12-2.84,4.92-1.86,8.45a14.15,14.15,0,0,1,.46,1.54c0.16,1-.22,2.19.35,3a2.08,2.08,0,0,0,1.78.79c1.94,0,4.66-1.72,5.31-3.6a16.67,16.67,0,0,0,.5-1.93,13.58,13.58,0,0,0,.06-2.43,3.32,3.32,0,0,1,.65-1.92c0.11-.14.24-0.26,0.35-0.4,1.35-1.62-.06-4,1.18-5.48a1.72,1.72,0,0,1,2.62.12c0.76,1,.71,2.94.68,4.13,0,1.61-.15,3.32.9,4.61a5.26,5.26,0,0,1,.74.95,6.82,6.82,0,0,1,.27,2c0.32,2.13,3.1,3.32,5,3.45a3.28,3.28,0,0,0,3.25-1.73A3.72,3.72,0,0,0,232.15,312.44ZM222,295.26c-0.19,1-.88,1.64-1.84,1.23-1.17-.51-1.17-1.53-1-2.65a21.52,21.52,0,0,1,.77-3.15c0.16-.59,0-1.23.23-1.81,0.66-2.16,2.28-.11,2.46,1.13A16.47,16.47,0,0,1,222,295.26Z" transform="translate(-129.5 -277.65)"/><path class="cls-1" d="M234.58,293.9c-0.13-3.06.88-6.06,0.82-9.15,0-1.24-1.07-4.61.14-5.5,0.84-.62,2.17-0.19,3.1-0.15a6.53,6.53,0,0,0,3.06-.78,4.93,4.93,0,0,1,2.65-.65c1.24,0.15,2,1.05,3,1.73,2.42,1.67,4-.95,6.34-1.09,3-.18,1.66,4.18,2,6a6.86,6.86,0,0,1,.29,3.13,5,5,0,0,1-2.45,2.45c-2.42,1.37-4.7-.88-7.07-1.29-0.91-.16-2.23-0.08-2.46,1.08-0.19.93,0.41,2,.35,3s-0.33,2,.31,2.69c0.82,0.91,1.86-.33,2.84-0.07s1.38,1,2.43.92c0.75-.06,1.67-0.59,2.38-0.11,0.93,0.63.55,2.52,0.53,3.47,0,1.29.29,3.22-.38,4.35-1.71,2.91-6-1.66-7.58,1-0.73,1.28-.15,3.54-0.13,5a11.29,11.29,0,0,1-1.91,6.86c-0.93,1.33-.95,2.67-1.34,4.21s-1.49,1.58-2.61.58a4.82,4.82,0,0,1-1.57-3.89c-0.08-1.49-.71-2.81-0.77-4.33s-1-2.63-1.35-4.17a18.38,18.38,0,0,1-.13-5.1,29.26,29.26,0,0,0,.19-5.13C235.06,297.24,234.65,295.59,234.58,293.9Z" transform="translate(-129.5 -277.65)"/><path class="cls-1" d="M257.76,300.81c0.11,1.72-.22,3.47.06,5.18s1.24,3.07,1.47,4.81c0.2,1.53.18,3.25,1.2,4.5s2.33,1.43,3.58,1.95,2.19,2,3.32,2.12c1.53,0.22,3.49-1.67,4.54-2.61a21.46,21.46,0,0,0,6.15-8.21,24.72,24.72,0,0,0,1.33-4.83,16.6,16.6,0,0,0-.28-5.16c-0.26-2,.94-3.64,1.18-5.62a32.4,32.4,0,0,0,.07-6c-0.11-1.68-.33-3.8-1.42-5.14s-3.32-1.36-5-1.93-2.91-1.66-4.49-2.07c-1.91-.49-3.37.47-4.73,1.78a22.68,22.68,0,0,1-1.92,1.83c-0.75.57-1.64,0.81-2.41,1.33-1.72,1.13-2.07,3.22-2,5.19A28.59,28.59,0,0,1,258,295a19.87,19.87,0,0,0-.21,5.83h0ZM271.16,299a11.53,11.53,0,0,0-1.67,2.55c-0.38,1.13,0,2.3-.14,3.46-0.09.67-.57,2.54-1.52,2.47s-1.41-1.82-1.57-2.45c-0.35-1.42.13-2.32,0.2-3.58a7.3,7.3,0,0,0-.62-3c-0.48-1.71,1.3-3.23,1.51-5a8.58,8.58,0,0,0-.36-2.61,5.45,5.45,0,0,1,.21-3.21c1.5-3.42,4.36-.82,4.42,1.9,0,1.16-.16,2.32-0.14,3.48,0,2.09.54,4.31-.46,6.2,0.2-.31.42-0.61,0.61-0.93Z" transform="translate(-129.5 -277.65)"/><path class="cls-1" d="M284.08,293.45a55.11,55.11,0,0,0-.2,5.93c0,2.27-.65,4.45-0.68,6.72,0,2.11.14,4.22,0.19,6.33,0.05,1.85.13,3.93,1.65,5.19a2.94,2.94,0,0,0,4,.07c1.26-1.23,1.08-3.11,1.38-4.72s1.94-2.63,2-4.36-0.22-3.78-.17-5.65a24.89,24.89,0,0,0-.69-5.42c-0.25-1.37,0-3.44,1.7-3.57s1.24,2.41,1.73,3.53a5.41,5.41,0,0,1,.81,2.4,21.74,21.74,0,0,1-.4,3.21,38.62,38.62,0,0,0,.15,6.64c0.06,1.58-.19,3.84,1.77,4.26,1.65,0.36,3-1,3.94-2.25,1.25-1.75.7-4.23,0.71-6.32a30.15,30.15,0,0,1,.57-6.24c0.29-1.37,0-4.86,1.77-5.3,3.78-.94,1.34,8.61,1.27,10.08-0.09,2.06.77,3.8,1,5.8s-0.69,4.34.27,6.3c0.55,1.13,2.34,2.94,3.64,3.07,2.26,0.22,1.81-2.92,1.84-4.29,0-2.05,1.33-3.73,1.45-5.78,0.12-2.21,0-4.48,0-6.7,0.06-4.59,0-9.21-.24-13.79-0.08-1.89.3-4.2-.16-6s-2.24-2.81-3.3-4.14c-1.22-1.54-2.6-.45-3.94.36-1.75,1.07-2.87,1.87-3.29,4a17,17,0,0,1-.92,3.31c-0.23.56-.46,1.13-0.69,1.7a5.27,5.27,0,0,1-.69,1.37,0.64,0.64,0,0,1-.32.25,0.71,0.71,0,0,1-.48-0.11,3.18,3.18,0,0,1-.7-0.43,2.65,2.65,0,0,1-.72-1.93c0-1.58.6-4.33-1-5.38-0.69-.46-1.6-0.19-2.33-0.54s-1.2-1.33-2-1.69c-1.67-.72-4.6-0.27-5.49,1.46a11.12,11.12,0,0,0-1.13,3.36,8.63,8.63,0,0,1-.69,3,21,21,0,0,0-1.39,2.4C283.86,290.85,284.24,292.15,284.08,293.45Z" transform="translate(-129.5 -277.65)"/><path class="cls-1" d="M317.59,312c-0.08-5.11-.44-10.4.3-15.47,0.19-1.3.58-2.55,0.76-3.85a11.85,11.85,0,0,0-.62-4.79,16.72,16.72,0,0,1-.34-4.08c0-1.3-.34-2.89.34-4.07,1.49-2.61,3.21-.09,5.24-0.39,1-.14,1.4-0.89,2.17-1.38,1.09-.7,2.21-0.16,3.25.4a9.6,9.6,0,0,0,3,1.38c1.12,0.16,2.1-1,3.2-.42s0.89,2.38,1.13,3.51c0.38,1.78,1.75,4.56,0,5.9l-0.35.24-0.63.4a2.48,2.48,0,0,1-.73.36,3.17,3.17,0,0,1-2.07-.66,3.08,3.08,0,0,0-1.66-.39c-1.1,0-3.11-1.05-3.71.35a8.33,8.33,0,0,0,0,3.71c0.54,1.86,3,.1,4.27,1.17a2.77,2.77,0,0,0,.61.49,6,6,0,0,0,1.08.14,1.52,1.52,0,0,1,1,1.11,4.73,4.73,0,0,1,.08,1.58c-0.07,1.1.18,2.51-.31,3.53-0.63,1.3-2.12.69-3.19,0.28a1.75,1.75,0,0,0-1.27-.18c-0.17.07-.31,0.21-0.48,0.3-0.95.52-2.2-.45-2.42,1a23,23,0,0,0,.29,3.53c0,1.79,1.58,1.35,2.7,1.86a9.82,9.82,0,0,1,1.21,1.08c1.45,1,2.78-.76,4.26-0.53,2,0.32,1.69,2.43,1.74,4a3.77,3.77,0,0,1-1.34,2.85c-3.24,2.7-6.95.41-10.42,0.52-1.22,0-1.32.44-2.52,0.65a4.43,4.43,0,0,1-3.29-.31C317.59,314.95,317.61,313.34,317.59,312Z" transform="translate(-129.5 -277.65)"/></svg>