<svg id="Layer_1" data-name="Layer 1" xmlns="http://www.w3.org/2000/svg" viewBox="0 0 619.47 816.63"><defs><style>.cls-1{fill:#ff002b;}</style></defs><title>matafome_logo_home</title><path class="cls-1" d="M33.62,141.52h0C30,154.42,29.33,163.8,35.13,176c3,6.23,3.27,12.77,2.57,19.57-0.4,3.85,0,8-.23,11.92-0.26,5,1.9,8.1,3.63,12.44,1.62,4.08,1.51,7.93,1.59,12.29,0.09,4.75,2.51,7.21,6.71,9.35,6.67,3.39,18.19,4.22,22.43-3.64,11.31-21,3.1-33,9-55.12,2.77-10.36,7.2-18.18,6.92-29.46-0.23-9-5.2-24.55,3.26-31.31,7.7-6.16,11.84,4.7,13.43,11,2.75,11-4.06,21.23-4.95,32.43-0.86,10.84.69,19.35,4.73,29.29a58.14,58.14,0,0,1,3.28,9.7c0.55,2.6.16,6.29,2,8.36a9.86,9.86,0,0,0,4.48,2.89c8.31,2.52,10.54-5.49,13-11.56,3.22-8.1,6.43-16.27,10.62-23.88,2.21-4,4-7.57,4.27-12.31,0.32-5.7-.83-10.63.74-16.28,1.17-4.21,2.86-8.09,3.72-12.4,1-5,1.26-10.13,5.79-13.17,6.89-4.63,13.11.8,13.35,8.41,0.75,23.52-12.39,46.58-5.8,70.29,0.93,3.35,2.28,6.65,2.32,10.14,0.11,9.43-11,24.46,1.49,31,2.93,1.54,8.95,3.65,12.1,2.42,6.76-2.63,8.5-14,16.12-14.81,2.58-.27,5.26.78,7.72-0.09a7.49,7.49,0,0,0,4.3-5.17c3.62-12.71,1.05-26.13.55-39.11-0.94-24.14,4.86-46.53,7.4-70.32a251.7,251.7,0,0,0,1.26-35.34c-0.4-11.51.13-27.32-5.28-37.71-8.35-16-37.85-17.86-46.33-.9-2,4.06-2.05,8.86-3.9,13s-4.75,5.8-8.27,8.39c-12.44,9.14-7.77,18.63-10.82,30.84-0.89,3.55-3.62,6.87-7.09,7.1-12.17.82-10.71-20.44-11.4-27.8-1.09-11.66-2.94-23.64-7.44-34.43C107.71,30.89,100,28.37,89,28.53c-9.7.14-23.13,3.07-30.77,9.92-9.45,8.48-5.56,23.45-10,34.26C46,78.14,41.47,82.36,39.5,87.84c-1.45,4-.93,8.37-0.87,12.59A142.8,142.8,0,0,1,33.62,141.52Z"/><path class="cls-1" d="M337,215.69c-2.61-6-6.32-12-7.24-18.48-1-6.94-.29-14.31-0.37-21.27-0.17-14.8-.63-29.68-3.19-44.36-2.4-13.75-8.71-27.18-9.41-41.13-0.31-6.15,1.29-12.64-.49-18.71-1.86-6.34-6.92-8.86-11.41-13.13-4.15-4-6-9.64-10.72-13A18.68,18.68,0,0,0,278.3,43c-4.69,1.46-7.84,5.43-12,7.83-5.59,3.24-9.69,4.77-12.55,11-2,4.4-2.84,9.29-5.09,13.59-3.92,7.5-9.59,13.29-11,21.89-1.26,8,2.82,17-1.08,24.56-1.34,2.59-3.56,4.63-5.22,7-6.49,9.43-3.2,22.08-4.72,33.37-1.22,9.08-7.06,16.25-9,24.86-1.74,7.81-3.1,17-2.38,25,0.28,3.1,1.45,6.07,1.79,9.16,0.67,6.11-1.89,12.69.81,18.24a11,11,0,0,0,19,1.15c2.87-4.42,2.06-10.18,3.51-15.23a17.89,17.89,0,0,1,8.19-10.44c2.15-1.24,4.57-2,6.62-3.44,6.35-4.32,10.11-24.74,10.55-32.07,0.35-5.89-2.56-12.77,2.92-16.83,13.77-10.21,12.82,14.59,13.33,21.63,0.53,7.33.08,15.65,3.29,22.5,3.12,6.66,6.84,11.14,8.4,18.63,2.35,11.25,1.3,28.88,16.55,29.75,7,0.4,13.89-4.12,20.4.14,3.34,2.18,8.73,9.4,12.73,4.17,3-4-.08-16.15-0.64-21A78.26,78.26,0,0,0,337,215.69Zm-51.59-89.16c-1,3.22-4.12,6.9-7.69,5.88-4.13-1.19-4.4-6.81-4.1-10.52,0.39-4.69,2.25-9.08,2.11-13.84s-2.79-9.32-.8-14.15c2.88-7,14.1-10,17-1.5,1.68,5-.86,12.13-2.21,16.88C288.09,114.95,287.13,120.94,285.41,126.54Z"/><path class="cls-1" d="M427.85,51.42c10.17-.23,23.07-3.41,31.3,4.64,11.62,11.37,3,26.83-1.56,39.25-2.39,6.47-2.27,14.83-6.13,20.56-3.47,5.16-10.36,6.63-14.57,1.53s-1.29-19.21-8.36-21.48c-4.11-1.32-8.32,3.6-9.93,7-2.86,6.1-1.52,13.77-1.88,20.3-0.63,11.45-2,22.9-2.67,34.37-1.15,19.2,2.31,42-4.11,60.31-2.82,8.06-7.65,15.45-9,23.91-1.84,11.59-1.58,25.5-16.54,24.78-10.5-.51-10.8-7-13.92-15.35a25.34,25.34,0,0,0-6.75-10.35c-3.84-3.62-4.81-9.57-4.23-14.93,0.69-6.38,3.13-12.19,4.66-18.25,1.62-6.4.11-13.37-.22-19.83-0.39-7.7,1.64-14.78,3.75-22.08,2.53-8.78,12.26-67.36-4.91-62.7-8,2.16-8.8,13-12.57,19.11-1.57,2.53-4,5.65-7.32,4.45-6-2.16-3.78-17.49-3.94-22.45-0.23-7.05-3.07-14.7-.44-21.48,1.86-4.8,3.54-7.75,3.07-13-0.39-4.36-1.19-8.35-.37-12.74a10.84,10.84,0,0,1,.59-2.18,12.35,12.35,0,0,1,2.25-3.24,22.92,22.92,0,0,1,4.52-4.34,12.48,12.48,0,0,1,8.3-1.82c8.59,1,13,10.42,21.73,11.85C394.87,59.93,411.55,51.8,427.85,51.42Z"/><path class="cls-1" d="M566.56,236.86l-0.06-.26c-1-4.21-2.57-8.23-3.29-12.5-1-6-.79-11.85-2.18-17.83-1.7-7.32-4.45-14.88-5.06-22.44-0.48-5.88,1.23-11.65,1.18-17.44A75.39,75.39,0,0,0,555.38,149c-1.46-5.84-3.48-11.55-3.85-17.66-0.41-6.82,2.53-13.64,2-20.19-0.46-5.52-4.16-10.34-5.83-15.45-2.75-8.41-2.45-17.36-6.27-25.59-4-8.61-11.22-16.07-20.48-17.73a24.24,24.24,0,0,0-21.86,7.88c-5,5.67-6.8,13.14-11.11,19.22-3.55,5-8.25,8.78-11.84,13.85-7.58,10.7-4.95,26.36-7.42,38.57-2.7,13.32-10.5,23.33-15.22,35.74-2.17,5.69-2.29,11-2.36,16.91-0.21,16.43-15.81,25.32-11.34,44.07,0.65,2.74,1.78,5.37,2.12,8.18,0.65,5.39-1.56,11.45,1.3,16,1.93,3.06,5.67,4.38,9.19,4.46,10.2,0.23,24.8-8.18,28.59-17.94a87.67,87.67,0,0,0,3-10c1.13-4.45.38-8.16,0.75-12.77a17.44,17.44,0,0,1,3.77-10c0.61-.71,1.29-1.35,1.91-2,7.4-8.26.44-20.82,7.22-28.59,3.84-4.4,10.71-3,13.74,1.1,3.83,5.16,3.21,15.59,2.8,21.82-0.56,8.47-1.42,17.42,3.86,24.41,1.28,1.69,2.86,3.17,3.73,5.12,1.42,3.2.65,7,1.05,10.53,1.28,11.27,15.68,18,25.6,19.06,6.69,0.7,14.38-2.2,17.39-8.51C567.66,245.53,567.46,241,566.56,236.86Zm-50.17-92.17c-1.19,5.24-4.93,8.48-9.9,6.12-6.05-2.88-5.87-8.24-4.92-14.13s2.84-10.71,4.61-16.41c1-3.09.48-6.43,1.54-9.48,3.89-11.22,12-.17,12.73,6.39C521.43,126.31,518.41,135.76,516.39,144.69Z"/><path class="cls-1" d="M38.47,677.07c-3-15.43-.24-31.47-3-47.11-1.1-6.27-9-22.57-3.58-28.06,3.8-3.81,10.85-2.63,15.61-3.17,5.72-.64,10.18-3.22,14.94-6.34,4-2.64,8-5.22,12.94-5.39,6.4-.21,11,3.78,16.46,6.44,13.61,6.61,19.46-7.92,31.36-10.5,15-3.25,11.68,19.93,14.74,28.75,1.69,4.87,4.69,10.29,3.93,15.65-0.83,5.8-6.27,11-10.53,14.33-11.23,8.85-24.54-.78-36.92-1-4.77-.09-11.36,1.32-11.66,7.38-0.24,4.87,3.66,10.06,4.13,15.08,0.4,4.28-.11,10.32,3.67,13.41,4.86,4,9.18-3.12,14.39-2.59,4.93,0.5,7.79,4,13,2.77,3.77-.88,8-4.29,12-2.41,5.22,2.47,4.75,12.35,5.39,17.21,0.87,6.58,4,16.11,1.47,22.37C130.46,730,105,710.17,99.21,725.1c-2.73,7.07,2,18.08,3.18,25.24,2.14,12.89,1.28,24.87-4.36,36.34-3.69,7.5-2.74,14.29-3.51,22.41-0.82,8.64-6.31,9.2-12.8,5-7.28-4.73-9.3-10.3-11-18.53-1.55-7.5-5.79-13.71-7.28-21.38-1.59-8.23-7.35-12.53-10.13-20.12-3-8.25-4-17.07-4.66-25.78s-0.88-17.61-3-26.22C43.49,693.64,40.15,685.6,38.47,677.07Z"/><path class="cls-1" d="M161.46,693.55c1.91,8.65,1.57,17.79,4.35,26.24s8.7,14.61,11.19,23.27c2.2,7.63,3.45,16.37,9.61,21.9,5.49,4.93,13,5.41,19.7,7.09,6.06,1.51,12.66,8.2,18.51,8.15,8-.06,16.43-11.23,21-16.79,11.38-13.88,20.87-28.47,24.8-46.5a127,127,0,0,0,3-25.58c0.1-9.73-2.84-16.81-5.46-26-2.89-10.13,1.93-19.23,1.63-29.45s-2.13-20.69-4.32-30.51c-1.88-8.43-4.63-19-11.22-25-7.24-6.57-17.91-4.3-26.7-5.95-8.27-1.55-16.09-6.17-24.43-7-10.06-1-16.76,5-22.62,12.72-2.75,3.6-5.15,7.53-8.3,10.79-3.38,3.48-7.69,5.41-11.23,8.61-7.85,7.09-8,18-6.24,27.92,2.2,12.45,4.05,23.58,3.24,36.29-0.68,10.56,1.24,19.53,3.5,29.77h0Zm66.65-19.65c-2.17,4.71-5.61,9-6.51,14.25-1,6,1.86,11.68,2,17.66,0.08,3.49-.91,13.36-5.78,13.72-4.2.31-8.59-8.13-9.88-11.22-2.9-6.92-1.14-11.9-1.77-18.36-0.65-6.7-2.49-8.11-5.48-14.74-3.76-8.33,4.09-17.41,3.77-26.57-0.16-4.53-2.32-8.71-3.85-13-1.89-5.27-2.86-11.1-1.41-16.47,5-18.55,21.48-7.56,23.93,6.21,1,5.87,1,11.89,2,17.76,1.83,10.56,6.1,21.46,2.49,31.83,0.79-1.73,1.66-3.43,2.39-5.19Z"/><path class="cls-1" d="M289.45,636.21c0.31,10.29,2.21,20.1,3.6,30.25,1.58,11.54.17,23.08,1.78,34.67,1.49,10.74,4,21.33,5.93,32,1.71,9.37,3.71,19.85,12.41,25,6.67,4,15.4,3.83,20.32-2.74,5.42-7.23,3.06-16.64,3.3-25.06,0.26-9.12,7.79-14.85,7-23.73-0.88-9.46-4.07-19-5.27-28.56-1.23-9.82-4.53-17.77-7.74-27-2.36-6.77-2.92-17.44,5.86-19.46,9-2.07,8.18,11.29,11.55,16.58,2.67,4.18,5.08,6.35,6,11.56,0.93,5.48.39,11.09,0.5,16.61,0.22,11.57,3.79,22.33,5.94,33.59,1.53,8,2,19.63,12.29,20.28,8.67,0.54,14.65-7.4,18.23-14.51,5-9.88.27-22-1.32-32.63s-2.6-21.36-2-32.14c0.42-7.2-3.64-24.71,4.86-28.27,18.46-7.73,13.5,42.66,14.33,50.18,1.15,10.53,6.85,18.72,9.43,28.72,2.67,10.34-.12,22.58,6.27,31.78,3.68,5.3,14.2,13.1,20.88,12.73,11.65-.64,6.9-16.24,6-23.21-1.37-10.46,3.85-20,2.83-30.49-1.09-11.34-3.45-22.74-5.05-34-3.3-23.35-7.41-46.72-12-69.85-1.89-9.53-1.75-21.54-5.52-30.47-3.59-8.52-13.56-12.49-20-18.45-7.41-6.88-13.53-.28-19.71,4.92-8.07,6.8-13.11,11.74-13.59,23a87.47,87.47,0,0,1-2.08,17.5c-0.74,3-1.47,6.1-2.16,9.16a27.08,27.08,0,0,1-2.42,7.49,3.27,3.27,0,0,1-1.41,1.5,3.64,3.64,0,0,1-2.52-.2,16.34,16.34,0,0,1-3.89-1.65c-3-1.94-4.51-5.63-5.16-9.21-1.47-8-.35-22.45-9.17-26.57-3.85-1.8-8.29.31-12.27-.94-4.44-1.39-7.11-5.81-11.66-7-9-2.35-23.57,2.22-26.76,11.68a57.1,57.1,0,0,0-3.1,18c0,5.68.76,10.43-1.13,15.91-1.54,4.46-4.21,8.6-5.16,13.28C286.27,623.21,289.25,629.51,289.45,636.21Z"/><path class="cls-1" d="M473.26,699.27c-4.38-25.87-10.35-52.44-10.56-78.77-0.05-6.73.94-13.41,0.83-20.14-0.15-9.13-3.45-15.65-6.87-23.83-2.78-6.66-3.81-13.37-4.92-20.44-1-6.61-4-14.4-1.45-20.94,5.54-14.44,16.23-3,26.31-6.09,4.73-1.47,6.4-5.61,9.92-8.69,5-4.39,11.1-2.56,16.83-.5,5,1.8,10.65,4.78,16.07,4.71,5.82-.07,9.9-6.52,15.93-4.62,6.61,2.08,6.35,11.38,8.48,16.94,3.35,8.75,12.46,21.79,4.49,30-0.51.52-1.05,1-1.6,1.48l-2.88,2.52a12.73,12.73,0,0,1-3.41,2.38c-3.61,1.48-7.56-.58-11-1.73s-5-1.14-8.72-.67c-5.62.72-16.62-2.92-18.55,4.66-1.06,4.17,1.09,15,2.89,18.86,4.19,9,15.4-1.87,22.6,2.63a14.21,14.21,0,0,0,3.46,2c1.81,0.5,3.71-.3,5.58-0.14,2.62,0.23,4.82,2.37,5.95,4.85a24.29,24.29,0,0,1,1.64,8c0.51,5.66,2.89,12.59,1.17,18.18-2.18,7.1-10.24,5.13-16,3.89-2.21-.48-4.67-1.13-6.6.06-0.82.5-1.43,1.29-2.2,1.87-4.41,3.38-11.51-.59-11.52,6.85,0,5.67,3.29,12.09,4.23,17.71,1.52,9.07,9.1,5.63,15.17,7.33,2.65,0.74,4.46,3.33,7,4.52,8.11,3.85,13.53-6.06,21.2-6,10.28,0.08,10.5,11,11.9,18.76A19.35,19.35,0,0,1,564,700.42c-14.36,16.24-34.95,7.52-52.5,10.8-6.17,1.15-6.36,3.28-12.28,5.26-5.27,1.76-11.61,3.61-17,1C475.59,714.18,474.4,706,473.26,699.27Z"/></svg>