<?xml version="1.0" encoding="utf-8"?>
<!-- Generator: Adobe Illustrator 19.2.0, SVG Export Plug-In . SVG Version: 6.00 Build 0)  -->
<svg version="1.1" id="Layer_1" xmlns="http://www.w3.org/2000/svg" xmlns:xlink="http://www.w3.org/1999/xlink" x="0px" y="0px"
	 viewBox="0 0 207.5 44.9" enable-background="new 0 0 207.5 44.9" xml:space="preserve">
<g>
	<g>
		<path fill="#FF002B" d="M0.4,22.3C0,24.2,1.1,19.5,0.4,22.3c-0.6,2.5-0.6,4.3,0.5,6.5c0.6,1.2,0.7,2.4,0.6,3.7c0,0.7,0,1.5,0,2.3
			c0,1,0.4,1.5,0.8,2.3c0.3,0.8,0.3,1.5,0.4,2.3c0,0.9,0.5,1.4,1.3,1.7c1.3,0.6,3.5,0.7,4.2-0.8c2-4.1,0.4-6.3,1.3-10.5
			c0.5-2,1.2-3.5,1.1-5.6c-0.1-1.7-1.2-4.6,0.4-6c1.4-1.2,2.3,0.8,2.6,2c0.6,2.1-0.6,4.1-0.7,6.2c-0.1,2.1,0.3,3.7,1.1,5.5
			c0.3,0.6,0.5,1.2,0.7,1.8c0.1,0.5,0.1,1.2,0.4,1.6c0.2,0.3,0.5,0.4,0.9,0.5c1.6,0.4,2-1.1,2.4-2.3c0.6-1.6,1.1-3.1,1.9-4.6
			c0.4-0.8,0.7-1.5,0.7-2.4c0-1.1-0.2-2,0-3.1c0.2-0.8,0.5-1.6,0.6-2.4c0.2-1,0.2-1.9,1-2.5c1.3-0.9,2.5,0.1,2.6,1.5
			c0.3,4.5-2,8.9-0.6,13.4c0.2,0.6,0.5,1.2,0.5,1.9c0.1,1.8-1.9,4.7,0.5,5.9c0.6,0.3,1.7,0.6,2.3,0.4c1.3-0.5,1.5-2.7,3-2.9
			c0.5-0.1,1,0.1,1.5-0.1c0.4-0.2,0.7-0.6,0.8-1c0.6-2.4,0-5-0.2-7.4c-0.3-4.6,0.6-8.9,0.9-13.4c0.2-2.2,0.2-4.5,0-6.7
			C34,7.9,34,4.9,32.9,3c-1.7-3-7.3-3.1-8.8,0.1c-0.4,0.8-0.3,1.7-0.7,2.5c-0.3,0.8-0.9,1.1-1.5,1.7c-2.3,1.8-1.4,3.6-1.9,5.9
			c-0.1,0.7-0.6,1.3-1.3,1.4c-2.3,0.2-2.2-3.8-2.4-5.2c-0.3-2.2-0.7-4.5-1.6-6.5c-1-2.1-2.4-2.5-4.5-2.4C8.4,0.6,5.8,1.2,4.4,2.6
			C2.7,4.2,3.5,7,2.7,9.1c-0.4,1-1.2,1.9-1.6,2.9C0.9,12.8,1,13.6,1,14.4C1.2,17.1,1.1,19.7,0.4,22.3z"/>
		<path fill="#FF002B" d="M58.9,33.1c-0.5-1.1-1.3-2.2-1.5-3.5s-0.2-2.7-0.2-4c-0.1-2.8-0.3-5.6-0.9-8.4c-0.5-2.6-1.8-5.1-2.1-7.8
			C54.1,8.2,54.4,7,54,5.8s-1.4-1.6-2.3-2.4c-0.8-0.7-1.2-1.8-2.1-2.4c-0.9-0.6-2.1-0.7-3-0.4s-1.5,1.1-2.2,1.6
			c-1,0.7-1.8,1-2.3,2.2c-0.4,0.8-0.5,1.8-0.9,2.6c-0.7,1.5-1.7,2.6-1.9,4.2c-0.2,1.5,0.7,3.2,0,4.7c-0.2,0.5-0.6,0.9-0.9,1.4
			c-1.2,1.8-0.5,4.2-0.7,6.4c-0.2,1.7-1.2,3.1-1.5,4.8c-0.3,1.5-0.5,3.2-0.3,4.8c0.1,0.6,0.3,1.1,0.4,1.7c0.2,1.2-0.3,2.4,0.3,3.5
			c0.3,0.6,1,1.1,1.8,1.1c0.7,0,1.5-0.4,1.8-1c0.5-0.9,0.3-1.9,0.6-2.9c0.2-0.8,0.8-1.6,1.5-2c0.4-0.3,0.9-0.4,1.2-0.7
			c1.2-0.9,1.8-4.8,1.8-6.2c0-1.1-0.6-2.4,0.4-3.2c2.5-2,2.5,2.7,2.7,4c0.1,1.4,0.1,3,0.8,4.3c0.6,1.2,1.4,2.1,1.7,3.5
			c0.5,2.1,0.4,5.5,3.3,5.5c1.3,0,2.6-0.9,3.9-0.1c0.6,0.4,1.7,1.7,2.4,0.7c0.5-0.8-0.1-3.1-0.3-4C59.9,35.8,59.5,34.5,58.9,33.1z
			 M48.5,16.5c-0.2,0.6-0.7,1.3-1.4,1.2c-0.8-0.2-0.9-1.3-0.8-2c0-0.9,0.4-1.7,0.3-2.6c-0.1-0.9-0.6-1.8-0.2-2.7
			c0.5-1.3,2.6-2,3.2-0.4c0.4,0.9-0.1,2.3-0.3,3.2C48.9,14.2,48.8,15.4,48.5,16.5z"/>
		<path fill="#FF002B" d="M75.1,1.1C77,1,79.4,0.3,81,1.8c2.3,2.1,0.8,5.1,0,7.5c-0.4,1.2-0.3,2.8-1,3.9c-0.6,1-1.9,1.3-2.8,0.4
			c-0.8-0.9-0.4-3.6-1.7-4c-0.8-0.2-1.6,0.7-1.8,1.4c-0.5,1.2-0.2,2.6-0.2,3.9c0,2.2-0.2,4.4-0.3,6.6c-0.1,3.7,0.7,8-0.4,11.5
			c-0.5,1.6-1.4,3-1.6,4.6c-0.3,2.2-0.1,4.9-3,4.8c-2,0-2.1-1.3-2.7-2.8c-0.3-0.8-0.7-1.4-1.4-1.9c-0.8-0.7-1-1.8-0.9-2.8
			c0.1-1.2,0.5-2.3,0.8-3.5s-0.1-2.5-0.2-3.8c-0.1-1.5,0.2-2.8,0.6-4.2c0.4-1.7,1.9-12.9-1.4-11.9c-1.5,0.5-1.6,2.5-2.3,3.7
			c-0.3,0.5-0.7,1.1-1.4,0.9c-1.2-0.4-0.8-3.3-0.9-4.2c-0.1-1.3-0.7-2.8-0.2-4.1c0.3-0.9,0.6-1.5,0.5-2.5c-0.1-0.8-0.3-1.6-0.2-2.4
			c0-0.1,0-0.3,0.1-0.4c0.1-0.2,0.2-0.4,0.4-0.6c0.3-0.3,0.5-0.6,0.8-0.9c0.5-0.3,1-0.4,1.6-0.4c1.6,0.1,2.5,1.9,4.2,2.1
			C68.8,3,72,1.3,75.1,1.1z"/>
		<path fill="#FF002B" d="M102.7,35.2C102.6,35.2,102.6,35.2,102.7,35.2c-0.2-0.8-0.6-1.6-0.7-2.4c-0.2-1.1-0.2-2.2-0.5-3.4
			c-0.4-1.4-0.9-2.8-1.1-4.2c-0.1-1.1,0.2-2.2,0.1-3.3c0-1.1-0.2-2.3-0.5-3.3c-0.3-1.1-0.7-2.2-0.8-3.3c-0.1-1.3,0.4-2.6,0.2-3.9
			c-0.1-1-0.9-1.9-1.2-2.9c-0.6-1.6-0.6-3.3-1.4-4.8c-0.8-1.6-2.2-3-4-3.2c-1.5-0.2-3.1,0.4-4.1,1.6c-0.9,1.1-1.2,2.5-2,3.7
			c-0.6,1-1.5,1.7-2.2,2.7c-1.4,2.1-0.8,5-1.2,7.4c-0.4,2.6-1.8,4.5-2.7,6.9c-0.4,1.1-0.4,2.1-0.3,3.2c0.1,3.1-2.8,4.9-1.9,8.5
			c0.1,0.5,0.4,1,0.5,1.5c0.2,1-0.2,2.2,0.4,3c0.4,0.6,1.1,0.8,1.8,0.8c1.9,0,4.7-1.7,5.3-3.6c0.2-0.6,0.4-1.3,0.5-1.9
			c0.2-0.9,0-1.6,0.1-2.4c0-0.7,0.2-1.4,0.7-1.9c0.1-0.1,0.2-0.3,0.3-0.4c1.4-1.6-0.1-4,1.2-5.5c0.7-0.9,2-0.6,2.6,0.1
			c0.8,1,0.7,2.9,0.7,4.1c0,1.6-0.2,3.3,0.9,4.6c0.3,0.3,0.6,0.6,0.7,0.9c0.3,0.6,0.2,1.3,0.3,2c0.3,2.1,3.1,3.3,5,3.5
			c1.3,0.1,2.7-0.5,3.2-1.7C102.9,36.9,102.9,36,102.7,35.2z M92.5,18.1c-0.2,1-0.9,1.6-1.8,1.2c-1.2-0.5-1.2-1.5-1-2.7
			c0.1-1.1,0.5-2.1,0.8-3.1c0.2-0.6,0-1.2,0.2-1.8c0.7-2.2,2.3-0.1,2.5,1.1C93.3,14.5,92.8,16.3,92.5,18.1z"/>
		<path fill="#FF002B" d="M105.1,16.7c-0.1-3.1,0.9-6.1,0.8-9.2c0-1.2-1.1-4.6,0.1-5.5c0.8-0.6,2.2-0.2,3.1-0.1
			c1.1,0,2.1-0.3,3.1-0.8c0.9-0.4,1.7-0.8,2.6-0.7c1.2,0.1,2,1.1,3,1.7c2.4,1.7,4-0.9,6.3-1.1c3-0.2,1.7,4.2,2,6
			c0.2,1,0.6,2.1,0.3,3.1c-0.3,1.1-1.5,1.9-2.5,2.4c-2.4,1.4-4.7-0.9-7.1-1.3c-0.9-0.2-2.2-0.1-2.5,1.1c-0.2,0.9,0.4,2,0.3,3
			c0,0.8-0.3,2,0.3,2.7c0.8,0.9,1.9-0.3,2.8-0.1c0.9,0.2,1.4,1,2.4,0.9c0.8-0.1,1.7-0.6,2.4-0.1c0.9,0.6,0.5,2.5,0.5,3.5
			c0,1.3,0.3,3.2-0.4,4.3c-1.7,2.9-6-1.7-7.6,1c-0.7,1.3-0.2,3.5-0.1,5c0,2.5-0.5,4.8-1.9,6.9c-0.9,1.3-0.9,2.7-1.3,4.2
			c-0.4,1.6-1.5,1.6-2.6,0.6c-1.3-1.1-1.5-2.3-1.6-3.9c-0.1-1.5-0.7-2.8-0.8-4.3c-0.1-1.6-1-2.6-1.4-4.2c-0.3-1.7-0.3-3.4-0.1-5.1
			c0.1-1.7,0.4-3.4,0.2-5.1C105.6,20,105.2,18.4,105.1,16.7z"/>
		<path fill="#FF002B" d="M128.3,23.6c0.1,1.7-0.2,3.5,0.1,5.2s1.2,3.1,1.5,4.8c0.2,1.5,0.2,3.3,1.2,4.5c0.9,1.1,2.3,1.4,3.6,1.9
			c1.1,0.5,2.2,2,3.3,2.1c1.5,0.2,3.5-1.7,4.5-2.6c2.6-2.3,4.9-4.9,6.1-8.2c0.6-1.6,1.1-3.2,1.3-4.8c0.3-1.9,0-3.3-0.3-5.2
			c-0.3-2,0.9-3.6,1.2-5.6c0.2-1.9,0.2-4,0.1-6c-0.1-1.7-0.3-3.8-1.4-5.1c-1.2-1.5-3.3-1.4-5-1.9C143,2.2,141.6,1,140,0.6
			c-1.9-0.5-3.4,0.5-4.7,1.8c-0.6,0.6-1.2,1.3-1.9,1.8c-0.8,0.6-1.6,0.8-2.4,1.3c-1.7,1.1-2.1,3.2-2,5.2c0.1,2.5,0.1,4.7-0.5,7.1
			C128,19.8,128.1,21.6,128.3,23.6C128.4,26.3,128.3,23.6,128.3,23.6z M141.7,21.8c-0.6,0.8-1.3,1.6-1.7,2.5c-0.4,1.1,0,2.3-0.1,3.5
			c-0.1,0.7-0.6,2.5-1.5,2.5c-0.8-0.1-1.4-1.8-1.6-2.5c-0.4-1.4,0.1-2.3,0.2-3.6c0.1-1.3-0.2-1.6-0.6-3c-0.5-1.7,1.3-3.2,1.5-5
			c0.1-0.9-0.2-1.7-0.4-2.6c-0.2-1.1-0.2-2.2,0.2-3.2c1.5-3.4,4.4-0.8,4.4,1.9c0,1.2-0.2,2.3-0.1,3.5c0,2.1,0.5,4.3-0.5,6.2
			c0.2-0.3,0.4-0.6,0.6-0.9C142,21.3,141.8,21.6,141.7,21.8z"/>
		<path fill="#FF002B" d="M154.6,16.2c-0.2,2-0.2,3.9-0.2,5.9c0,2.3-0.7,4.4-0.7,6.7c0,2.1,0.1,4.2,0.2,6.3c0.1,1.9,0.1,3.9,1.6,5.2
			c1.2,1,2.8,1.2,4,0.1c1.3-1.2,1.1-3.1,1.4-4.7c0.3-1.7,1.9-2.6,2-4.4c0.1-1.8-0.2-3.8-0.2-5.7c0.1-1.9-0.3-3.6-0.7-5.4
			c-0.3-1.4,0-3.4,1.7-3.6c1.8-0.1,1.2,2.4,1.7,3.5c0.4,0.9,0.8,1.4,0.8,2.4c0,1.1-0.3,2.1-0.4,3.2c-0.3,2.2,0.1,4.4,0.2,6.6
			c0.1,1.6-0.2,3.8,1.8,4.3c1.7,0.4,3-1,3.9-2.3c1.3-1.8,0.7-4.2,0.7-6.3s0.1-4.2,0.6-6.2c0.3-1.4,0-4.9,1.8-5.3
			c3.8-0.9,1.3,8.6,1.3,10.1c-0.1,2.1,0.8,3.8,1,5.8c0.2,2.1-0.7,4.3,0.3,6.3c0.6,1.1,2.3,2.9,3.6,3.1c2.3,0.2,1.8-2.9,1.8-4.3
			c0-2.1,1.3-3.7,1.4-5.8c0.1-2.2,0-4.5,0-6.7c0.1-4.6,0-9.2-0.2-13.8c-0.1-1.9,0.3-4.2-0.2-6c-0.4-1.7-2.2-2.8-3.3-4.1
			c-1.2-1.5-2.6-0.5-3.9,0.4c-1.8,1.1-2.9,1.9-3.3,4c-0.2,1.2-0.5,2.2-0.9,3.3c-0.2,0.6-0.5,1.1-0.7,1.7c-0.2,0.5-0.4,1-0.7,1.4
			c-0.1,0.1-0.2,0.2-0.3,0.2c-0.2,0-0.3,0-0.5-0.1s-0.5-0.2-0.7-0.4c-0.5-0.5-0.7-1.2-0.7-1.9c0-1.6,0.6-4.3-1-5.4
			c-0.7-0.5-1.6-0.2-2.3-0.5c-0.8-0.4-1.2-1.3-2-1.7c-1.7-0.7-4.6-0.3-5.5,1.5c-0.5,1-1,2.2-1.1,3.4c-0.2,1.1-0.2,2-0.7,3
			c-0.4,0.8-1.1,1.5-1.4,2.4C154.4,13.7,154.7,15,154.6,16.2z"/>
		<path fill="#FF002B" d="M188.1,34.8c-0.1-5.1-0.4-10.4,0.3-15.5c0.2-1.3,0.6-2.6,0.8-3.9c0.2-1.8-0.2-3.1-0.6-4.8
			c-0.3-1.4-0.3-2.7-0.3-4.1c0-1.3-0.3-2.9,0.3-4.1c1.5-2.6,3.2-0.1,5.2-0.4c1-0.1,1.4-0.9,2.2-1.4c1.1-0.7,2.2-0.2,3.3,0.4
			c0.9,0.5,1.9,1.2,3,1.4s2.1-1,3.2-0.4c1.2,0.6,0.9,2.4,1.1,3.5c0.4,1.8,1.8,4.6,0,5.9c-0.1,0.1-0.2,0.2-0.4,0.2
			c-0.2,0.1-0.4,0.3-0.6,0.4c-0.2,0.1-0.5,0.3-0.7,0.4c-0.7,0.2-1.4-0.3-2.1-0.7c-0.6-0.3-0.9-0.4-1.7-0.4c-1.1,0-3.1-1.1-3.7,0.3
			c-0.3,0.8-0.2,2.9,0,3.7c0.5,1.9,3,0.1,4.3,1.2c0.2,0.2,0.4,0.4,0.6,0.5c0.3,0.2,0.7,0.1,1.1,0.1c0.5,0.1,0.9,0.6,1,1.1
			s0.1,1.1,0.1,1.6c-0.1,1.1,0.2,2.5-0.3,3.5c-0.6,1.3-2.1,0.7-3.2,0.3c-0.4-0.2-0.9-0.4-1.3-0.2c-0.2,0.1-0.3,0.2-0.5,0.3
			c-0.9,0.5-2.2-0.5-2.4,1c-0.2,1.1,0.3,2.4,0.3,3.5c0,1.8,1.6,1.4,2.7,1.9c0.5,0.2,0.8,0.8,1.2,1.1c1.4,1,2.8-0.8,4.3-0.5
			c2,0.3,1.7,2.4,1.7,4c0,1.1-0.5,2.2-1.3,2.9c-3.2,2.7-6.9,0.4-10.4,0.5c-1.2,0-1.3,0.4-2.5,0.6c-1.1,0.2-2.3,0.4-3.3-0.3
			C188.1,37.7,188.1,36.1,188.1,34.8z"/>
	</g>
</g>
</svg>
